<svg xmlns="http://www.w3.org/2000/svg" version="1.1" xmlns:xlink="http://www.w3.org/1999/xlink" xmlns:svgjs="http://svgjs.dev/svgjs" width="2000" height="2000" viewBox="0 0 2000 2000"><g transform="matrix(1,0,0,1,0,0.0010949678105589555)"><svg viewBox="0 0 280 280" data-background-color="#ffffff" preserveAspectRatio="xMidYMid meet" height="2000" width="2000" xmlns="http://www.w3.org/2000/svg" xmlns:xlink="http://www.w3.org/1999/xlink"><g id="tight-bounds" transform="matrix(1,0,0,1,0,-0.00015329549347598004)"><svg viewBox="0 0 280 280" height="280" width="280"><g><svg viewBox="0 0 280 280" height="280" width="280"><g><svg viewBox="0 0 280 280" height="280" width="280"><g id="textblocktransform"><svg viewBox="0 0 280 280" height="280" width="280" id="textblock"><g><svg viewBox="0 0 280 280" height="280" width="280"><g transform="matrix(1,0,0,1,74.00336708925556,111.1432601580019)"><svg viewBox="0 0 131.99326582148888 57.71347968399622" height="57.71347968399622" width="131.99326582148888"><g id="icon-0"><svg xmlns="http://www.w3.org/2000/svg" xmlns:xlink="http://www.w3.org/1999/xlink" version="1.1" x="0" y="0" viewBox="9.308958408242603 78.32684565886578 267.5021641402784 116.96415434113422" enable-background="new 0 0 283.46 283.46" xml:space="preserve" height="57.71347968399622" width="131.99326582148888" class="icon-jxe-0" data-fill-palette-color="accent" id="jxe-0"><path fill="#000000" d="M249.14 151.042A1.484 1.484 0 0 1 248.56 148.189 1.486 1.486 0 1 1 249.14 151.042M247.939 142.361C248.619 141.894 248.789 140.968 248.32 140.293A1.48 1.48 0 0 0 246.256 139.91 1.48 1.48 0 0 0 245.875 141.978C246.162 142.395 246.627 142.621 247.099 142.621 247.39 142.621 247.685 142.535 247.945 142.361zM254.455 148.375A1.482 1.482 0 0 0 255.738 146.147 1.483 1.483 0 0 0 253.707 145.603 1.495 1.495 0 0 0 253.164 147.638C253.441 148.113 253.941 148.375 254.455 148.375M259.421 145.109C259.728 145.109 260.036 145.016 260.304 144.821A1.488 1.488 0 1 0 258.224 144.511C258.517 144.902 258.968 145.109 259.421 145.109M194.613 160.24A0.85 0.85 0 0 0 195.396 159.721L196.386 157.372A0.85 0.85 0 0 0 194.822 156.71L193.832 159.06A0.844 0.844 0 0 0 194.283 160.171C194.392 160.218 194.503 160.24 194.613 160.24M198.91 149.216A0.85 0.85 0 0 0 200.023 148.762L201.015 146.414A0.85 0.85 0 1 0 199.449 145.752L198.457 148.101A0.853 0.853 0 0 0 198.91 149.216M196.597 154.695A0.85 0.85 0 0 0 197.71 154.241L198.7 151.893A0.85 0.85 0 0 0 198.249 150.779 0.85 0.85 0 0 0 197.134 151.232L196.144 153.581A0.85 0.85 0 0 0 196.597 154.695M142.323 147.484C142.552 147.652 142.807 147.744 143.069 147.767A1.48 1.48 0 0 0 144.402 147.167 1.49 1.49 0 0 0 144.087 145.087 1.49 1.49 0 0 0 142.005 145.401 1.493 1.493 0 0 0 142.323 147.484M137.291 154.326C137.514 154.496 137.774 154.586 138.036 154.611A1.488 1.488 0 1 0 136.97 152.249 1.48 1.48 0 0 0 137.291 154.326M152.391 133.796A1.48 1.48 0 0 0 154.469 133.479 1.49 1.49 0 0 0 154.154 131.398 1.488 1.488 0 0 0 152.391 133.796M147.358 140.642A1.497 1.497 0 0 0 149.439 140.326 1.488 1.488 0 0 0 147.041 138.562 1.49 1.49 0 0 0 147.358 140.642M132.254 161.171A1.494 1.494 0 0 0 134.334 160.854 1.49 1.49 0 0 0 134.016 158.772 1.49 1.49 0 0 0 131.937 159.088 1.494 1.494 0 0 0 132.254 161.171M84.018 133.418A0.8 0.8 0 0 0 84.352 133.349 183 183 0 0 0 86.699 132.32 0.85 0.85 0 0 0 87.128 131.197 0.85 0.85 0 0 0 86.005 130.769C85.242 131.111 84.467 131.452 83.682 131.789A0.85 0.85 0 0 0 84.018 133.418M78.508 135.664A0.9 0.9 0 0 0 78.813 135.607 174 174 0 0 0 81.197 134.665 0.85 0.85 0 0 0 80.56 133.09C79.783 133.403 78.997 133.715 78.201 134.022A0.849 0.849 0 0 0 78.508 135.664M72.917 137.699A0.9 0.9 0 0 0 73.192 137.653C74.006 137.374 74.813 137.09 75.611 136.802A0.848 0.848 0 1 0 75.034 135.204C74.244 135.488 73.447 135.768 72.642 136.044A0.85 0.85 0 0 0 72.917 137.699M67.251 139.511A1 1 0 0 0 67.494 139.476 141 141 0 0 0 69.945 138.722 0.85 0.85 0 0 0 69.431 137.103C68.631 137.357 67.823 137.605 67.008 137.848A0.849 0.849 0 0 0 67.251 139.511M89.441 130.973A0.85 0.85 0 0 0 89.803 130.892C90.587 130.52 91.357 130.15 92.112 129.778A0.85 0.85 0 1 0 91.363 128.253C90.615 128.62 89.853 128.988 89.078 129.355A0.85 0.85 0 0 0 89.441 130.973M55.72 142.421A1 1 0 0 0 55.893 142.403C56.734 142.229 57.57 142.049 58.4 141.86A0.85 0.85 0 1 0 58.025 140.203C57.205 140.388 56.379 140.566 55.549 140.738A0.85 0.85 0 0 0 55.72 142.421M61.517 141.09A1 1 0 0 0 61.725 141.064C62.558 140.854 63.386 140.637 64.206 140.414A0.85 0.85 0 0 0 63.76 138.775C62.949 138.995 62.133 139.21 61.309 139.417A0.849 0.849 0 0 0 61.517 141.09M105.151 122.506C105.302 122.506 105.454 122.466 105.592 122.381A149 149 0 0 0 107.772 121.028 0.849 0.849 0 1 0 106.864 119.592C106.178 120.026 105.459 120.472 104.708 120.93A0.85 0.85 0 0 0 105.151 122.506M110.176 119.311A0.84 0.84 0 0 0 110.644 119.17C111.413 118.661 112.123 118.179 112.772 117.732A0.85 0.85 0 0 0 111.807 116.333C111.167 116.774 110.465 117.25 109.706 117.753A0.849 0.849 0 0 0 110.176 119.311M102.574 92.172A0.85 0.85 0 0 0 103.686 91.716 65 65 0 0 1 104.787 89.249 0.85 0.85 0 0 0 103.248 88.527 67 67 0 0 0 102.119 91.059 0.85 0.85 0 0 0 102.574 92.172M101.224 98.373L101.267 98.374A0.85 0.85 0 0 0 102.115 97.567C102.153 96.809 102.285 95.98 102.519 95.031A0.85 0.85 0 1 0 100.869 94.625C100.609 95.68 100.461 96.615 100.418 97.482A0.85 0.85 0 0 0 101.224 98.373M94.775 128.335A0.84 0.84 0 0 0 95.164 128.239C95.937 127.841 96.693 127.442 97.433 127.047A0.85 0.85 0 0 0 96.631 125.549C95.9 125.941 95.151 126.336 94.385 126.731A0.85 0.85 0 0 0 94.775 128.335M100.015 125.512A0.86 0.86 0 0 0 100.431 125.403C101.195 124.974 101.937 124.549 102.656 124.131A0.85 0.85 0 0 0 101.801 122.662C101.089 123.076 100.354 123.497 99.598 123.922A0.85 0.85 0 0 0 100.015 125.512M276.267 167.542L276.24 167.73C275.982 169.411 275.383 173.348 269.021 177.52 262.269 181.95 250.353 185.772 233.603 188.879 202.417 194.664 148.871 195.291 112.232 195.291 106.663 195.291 101.487 195.275 96.836 195.263 92.998 195.252 89.509 195.242 86.445 195.242 55.188 195.242 24.808 192.783 18.723 191.734 10.174 190.26 10.174 182.944 10.174 177.602V165.387C10.174 164.714 10.383 164.093 10.738 163.579 9.608 156.971 7.959 142.294 11.244 124.302 14.506 106.439 16.653 101.075 20.814 100.384 22.395 100.123 24.706 100.568 26.727 104.184 26.926 104.54 27.076 104.919 27.302 105.494 34.269 123.16 51.348 121.149 56.96 120.489 75.655 118.29 83.759 115.382 91.721 111.062 87.493 105.426 86.52 98.539 88.929 90.914 90.977 84.427 94.809 79.694 94.971 79.496A3.19 3.19 0 0 1 98.712 78.592L126.872 90.875A3.188 3.188 0 0 1 132.702 89.425L136.403 95.032 146.769 99.554C148.289 100.068 150.117 100.691 152.191 101.399A3.184 3.184 0 0 1 158.5 101.018L159 103.73 165.314 105.9A3.185 3.185 0 0 1 167.96 102.404 3.19 3.19 0 0 1 171.622 105.031L172.15 108.254C174.267 108.985 176.422 109.728 178.59 110.478A3.186 3.186 0 0 1 184.9 109.639L185.497 112.866C187.589 113.591 189.667 114.31 191.702 115.017A3.186 3.186 0 0 1 194.339 112.107 3.187 3.187 0 0 1 198.017 114.708L198.478 117.371C200.687 118.141 202.81 118.88 204.806 119.578A3.185 3.185 0 0 1 211.13 119.026L211.628 121.968C214.212 122.878 216.361 123.639 217.937 124.206A3.186 3.186 0 0 1 224.224 123.963L224.804 126.876A59 59 0 0 1 229.492 129.064C229.709 129.086 229.937 129.11 230.179 129.138 250.486 131.461 263.457 134.907 268.779 139.057 275.888 144.609 277.927 157.589 276.267 167.542M239.544 136.862C243.228 141.089 246.349 146.925 248.189 155.297 259.398 152.234 264.777 149.231 267.357 147.049 266.65 145.849 265.818 144.834 264.855 144.084 261.474 141.446 252.462 138.9 239.544 136.862M112.673 105.81L112.128 106.192C114.593 107.433 117.638 108.655 121.237 109.842 131.754 113.31 154.834 120.505 177.156 127.463 195.547 133.197 212.922 138.613 220.17 140.986 225.89 142.861 229.654 144.573 232.537 148.823A0.85 0.85 0 0 1 233.588 148.295L236.023 149.051A0.85 0.85 0 0 1 236.585 150.113 0.85 0.85 0 0 1 235.523 150.673L233.259 149.973C234.468 152.046 235.523 154.657 236.515 158.038 238.456 157.644 240.285 157.249 242.005 156.85A50 50 0 0 0 240.806 152.311L238.769 151.678A0.848 0.848 0 1 1 239.27 150.056L240.11 150.317C236.793 141.515 231.512 137.242 225.964 134.418A3.183 3.183 0 0 1 219.772 134.195L219.233 131.503C219.186 131.483 219.137 131.465 219.089 131.446L218.21 131.098C217.54 130.833 215.637 130.147 212.848 129.16L212.927 129.627A3.187 3.187 0 0 1 209.782 133.346 3.186 3.186 0 0 1 206.645 130.692L205.975 126.745A4279 4279 0 0 0 199.71 124.557L199.993 126.207A3.19 3.19 0 0 1 196.85 129.933 3.19 3.19 0 0 1 193.713 127.287L192.832 122.166C190.875 121.486 188.864 120.79 186.826 120.083L187.098 121.562A3.185 3.185 0 1 1 180.833 122.719L179.903 117.687 173.319 115.413 173.592 117.071A3.186 3.186 0 1 1 167.303 118.103L166.473 113.053 160.326 110.935 160.652 112.699A3.186 3.186 0 0 1 154.386 113.855L153.407 108.561C150.892 107.7 148.63 106.926 146.716 106.274A3.2 3.2 0 0 1 145.632 106.017L144.478 105.514 142.981 105.009 144.912 107.931A3.187 3.187 0 0 1 142.256 112.872 3.18 3.18 0 0 1 139.595 111.441L133.497 102.205C121.831 99.403 118.483 101.74 112.673 105.81M194.074 162.852L193.967 163.109C207.422 162.234 219.949 160.988 230.217 159.223 227.431 150.076 224.5 149.112 218.187 147.042 214.894 145.964 209.478 144.245 202.816 142.154L202.337 143.284A0.844 0.844 0 0 1 201.225 143.738 0.846 0.846 0 0 1 200.776 142.625L201.188 141.646 200.489 141.426S193.523 139.244 183.672 136.155L162.86 164.494C165.833 164.408 168.807 164.33 171.774 164.221L187.099 163.522A727 727 0 0 0 192.074 163.231L192.512 162.193A0.848 0.848 0 1 1 194.074 162.852M151.032 125.916L122.168 165.105 129.287 165.078C132.07 165.059 134.918 165.032 137.792 165L163.602 129.861zM97.314 107.858L98.395 107.218A427 427 0 0 1 103.174 104.409C103.252 104.364 103.325 104.319 103.402 104.274A1 1 0 0 1 103.173 104.312 0.85 0.85 0 0 1 102.502 103.983 10.2 10.2 0 0 1 101.021 101.409 0.85 0.85 0 0 1 102.605 100.794C102.889 101.526 103.305 102.249 103.844 102.941A0.846 0.846 0 0 1 103.779 104.052C105.755 102.875 107.412 101.717 109.016 100.593 112.834 97.918 116.085 95.851 120.448 95.03L98.522 85.466C95.796 89.628 90.605 99.668 97.314 107.858M17.294 126.705C25.311 127.471 28.53 127.597 36.569 127.597 39.434 127.597 41.786 127.186 43.738 126.558 38.406 125.577 33.813 123.498 30.009 120.326 24.821 116.003 22.583 110.861 21.559 108.298 20.618 110.72 19.298 115.673 17.513 125.452 17.436 125.871 17.366 126.288 17.294 126.705M16.302 133.947C18.153 134.278 20.053 134.631 21.992 135.007 33.458 137.227 42.861 139.397 50.692 141.654 51.198 141.563 51.701 141.477 52.215 141.383A0.86 0.86 0 0 1 53.21 142.066 0.9 0.9 0 0 1 53.206 142.397C59.427 144.289 64.6 146.251 68.996 148.363 76.279 151.86 80.762 155.836 83.688 160.578L84.692 162.349C85.152 163.235 85.568 164.146 85.945 165.085H86.446C89.515 165.085 93.01 165.096 96.855 165.106L97.345 165.107 131.167 119.671C124.789 117.663 120.293 116.241 119.241 115.894A106 106 0 0 1 116.596 114.981C116.308 115.198 115.971 115.451 115.567 115.747A0.844 0.844 0 0 1 114.38 115.564 0.85 0.85 0 0 1 114.563 114.377L114.701 114.275C111.238 112.936 108.386 111.553 106.072 110.095 104.51 110.999 103.054 111.863 101.647 112.697 90.314 119.423 82.826 123.866 57.707 126.822A63 63 0 0 1 54.949 127.073C50.078 131.707 44.063 133.969 36.569 133.969 28.17 133.969 24.884 133.836 16.405 133.021 16.37 133.331 16.334 133.64 16.302 133.947M269.669 153.294C262.98 157.964 251.089 161.848 233.603 165.093 202.417 170.878 148.871 171.505 112.232 171.505 106.663 171.505 101.487 171.489 96.836 171.478 92.998 171.466 89.509 171.457 86.445 171.457 55.427 171.457 25.272 169.035 18.867 167.974L16.546 167.784V177.607C16.546 183.876 17.003 184.977 19.805 185.46 25.73 186.481 55.548 188.874 86.445 188.874 89.514 188.874 93.009 188.886 96.854 188.895 131.889 188.995 197.101 189.174 232.439 182.618 255.724 178.296 269.041 172.671 269.939 166.772L269.982 166.497C270.675 162.352 270.589 157.524 269.669 153.294M178.834 153.527A1.49 1.49 0 0 0 176.752 153.841 1.493 1.493 0 0 0 177.07 155.923C177.299 156.091 177.554 156.183 177.816 156.206A1.489 1.489 0 0 0 178.834 153.527M173.798 160.373A1.483 1.483 0 0 0 171.717 160.689 1.48 1.48 0 0 0 172.038 162.765C172.261 162.935 172.521 163.025 172.783 163.05A1.487 1.487 0 0 0 173.798 160.373M188.902 139.838A1.487 1.487 0 1 0 187.139 142.236 1.487 1.487 0 0 0 188.902 139.838M183.866 146.685A1.486 1.486 0 1 0 182.106 149.081C182.331 149.247 182.591 149.337 182.854 149.36A1.5 1.5 0 0 0 184.187 148.764 1.486 1.486 0 0 0 183.866 146.685" data-fill-palette-color="accent"></path></svg></g></svg></g><g id="text-0"><path d="M148.303 21.377c0.024 1.352-0.235 2.497-0.775 3.435-0.54 0.938-1.284 1.654-2.229 2.147v0c-0.841 0.439-1.691 0.759-2.55 0.96-0.858 0.201-1.778 0.31-2.759 0.327v0c-0.981 0.017-2.335-0.052-4.061-0.207v0l-2.191-0.16-0.49-27.84 2.227-0.039 0.158 8.988c0.628-0.462 1.398-0.82 2.309-1.075 0.911-0.255 1.856-0.391 2.837-0.408v0c1.511-0.027 2.815 0.202 3.911 0.687v0c2.272 0.994 3.432 2.884 3.481 5.668v0zM145.986 14.018c-0.028-1.617-0.52-2.782-1.474-3.495-0.954-0.713-2.174-1.056-3.658-1.03v0c-0.901 0.016-1.814 0.158-2.738 0.426-0.924 0.268-1.74 0.607-2.449 1.018v0l0.264 14.994c1.569 0.211 2.857 0.308 3.864 0.29v0c4.269-0.075 6.376-1.664 6.322-4.766v0z" fill="#000000" data-fill-palette-color="primary"></path><path d="M4.063 143.682c0-5.874 4.762-10.636 10.636-10.636 5.874 0 10.636 4.762 10.637 10.636 0 5.874-4.762 10.636-10.637 10.637-5.874 0-10.636-4.762-10.636-10.637z" fill="#000000" data-fill-palette-color="primary"></path><path d="M254.664 143.682c0-5.874 4.762-10.636 10.637-10.636 5.874 0 10.636 4.762 10.636 10.636 0 5.874-4.762 10.636-10.636 10.637-5.874 0-10.636-4.762-10.637-10.637z" fill="#000000" data-fill-palette-color="primary"></path></g><g id="text-1"><path d="M148.173 273.425c-0.024 1.352-0.322 2.487-0.896 3.405-0.573 0.918-1.341 1.608-2.304 2.068v0c-0.856 0.409-1.716 0.699-2.581 0.87-0.865 0.17-1.788 0.247-2.769 0.23v0c-0.981-0.017-2.332-0.134-4.052-0.35v0l-2.184-0.238 0.49-27.839 2.227 0.039-0.158 8.988c0.644-0.44 1.426-0.771 2.345-0.993 0.919-0.223 1.869-0.325 2.85-0.308v0c1.511 0.027 2.806 0.301 3.884 0.824v0c2.236 1.074 3.329 3.003 3.28 5.787v0zM146.115 265.989c0.028-1.617-0.422-2.799-1.35-3.545-0.928-0.746-2.135-1.132-3.619-1.158v0c-0.901-0.016-1.818 0.094-2.751 0.33-0.932 0.236-1.76 0.546-2.483 0.931v0l-0.264 14.994c1.56 0.266 2.844 0.408 3.851 0.426v0c4.269 0.075 6.43-1.438 6.485-4.541v0z" fill="#000000" data-fill-palette-color="secondary"></path></g></svg></g></svg></g></svg></g><g></g></svg></g><defs></defs></svg><rect width="280" height="280" fill="none" stroke="none" visibility="hidden"></rect></g></svg></g></svg>