<?xml version="1.0" standalone="no"?>
<!DOCTYPE svg PUBLIC "-//W3C//DTD SVG 20010904//EN"
 "http://www.w3.org/TR/2001/REC-SVG-20010904/DTD/svg10.dtd">
<svg version="1.0" xmlns="http://www.w3.org/2000/svg" width="1280.000000pt" height="926.000000pt" viewBox="0 0 1280.000000 926.000000" preserveAspectRatio="xMidYMid meet">
<g transform="translate(0.000000,926.000000) scale(0.100000,-0.100000)" fill="#000000" stroke="none">
<path d="M0 8800 l0 -460 443 0 442 0 82 -85 c250 -260 546 -621 782 -953
1212 -1709 1769 -3729 1601 -5807 -24 -297 -51 -514 -107 -852 -36 -219 -36
-223 -19 -268 11 -27 32 -56 54 -73 34 -25 41 -27 136 -26 78 1 121 7 188 27
192 58 644 227 941 351 l159 66 176 -96 c479 -259 916 -448 1282 -554 80 -23
166 -48 193 -56 41 -13 53 -13 95 0 26 8 112 33 192 56 365 106 805 296 1282
555 l178 96 142 -59 c328 -136 558 -224 798 -307 191 -65 238 -77 331 -83 76
-4 91 -2 125 17 50 29 73 60 82 113 8 44 6 66 -42 368 -257 1639 -84 3218 516
4710 405 1005 1053 2016 1774 2768 l89 92 443 0 442 0 0 460 0 460 -6400 0
-6400 0 0 -460z m2525 -476 c20 -21 15 -59 -35 -259 -44 -176 -95 -317 -157
-436 -52 -100 -140 -221 -157 -216 -6 2 -33 34 -61 72 -170 233 -359 479 -465
605 -66 80 -137 164 -157 188 -30 35 -34 45 -22 53 8 5 237 9 526 9 458 0 513
-2 528 -16z m1834 3 c19 -23 -94 -407 -191 -652 -135 -339 -397 -835 -441
-835 -13 0 -143 214 -277 454 -140 251 -334 652 -445 920 -38 92 -42 112 -22
119 6 3 316 6 688 6 556 1 679 -1 688 -12z m1821 -2 c45 -55 -51 -497 -182
-835 -55 -141 -160 -360 -237 -495 -82 -143 -221 -355 -232 -355 -21 0 -166
251 -300 520 -160 322 -290 648 -389 976 -54 178 -56 190 -37 197 6 3 316 6
688 6 585 1 678 -1 689 -14z m1814 9 c9 -3 16 -12 16 -20 0 -24 -98 -339 -151
-486 -81 -225 -191 -473 -320 -728 -121 -237 -245 -451 -265 -457 -6 -2 -47
52 -91 119 -293 448 -470 879 -557 1350 -25 133 -26 187 -3 216 7 9 156 12
682 12 371 0 680 -3 689 -6z m1820 0 c9 -3 16 -12 16 -20 0 -16 -74 -196 -147
-358 -170 -379 -575 -1116 -613 -1116 -36 0 -293 479 -406 755 -114 279 -243
707 -222 732 8 10 141 13 683 13 371 0 680 -3 689 -6z m1516 -4 c16 -10 22 -1
-81 -120 -146 -168 -370 -455 -527 -676 -94 -132 -94 -132 -127 -97 -136 144
-266 472 -330 834 -13 72 -36 69 538 69 296 0 518 -4 527 -10z m-8458 -797
c122 -254 337 -641 515 -927 41 -65 77 -124 79 -130 3 -7 -29 -53 -71 -102
-101 -118 -385 -404 -402 -404 -7 0 -68 111 -137 253 -134 272 -222 435 -364
676 l-91 154 70 76 c115 124 235 319 301 489 9 23 22 42 28 42 6 0 39 -57 72
-127z m7156 85 c66 -170 186 -365 301 -489 l70 -76 -91 -154 c-142 -241 -230
-404 -364 -676 -72 -147 -130 -253 -138 -253 -25 0 -365 352 -465 482 -11 15
-1 37 81 170 190 306 388 664 511 921 31 64 61 117 67 117 6 0 19 -19 28 -42z
m-5407 -80 c115 -315 366 -815 573 -1142 31 -50 56 -98 56 -108 0 -45 -640
-646 -673 -632 -38 17 -601 764 -600 798 0 6 38 70 85 141 174 266 338 578
453 863 32 78 63 142 70 142 7 0 23 -28 36 -62z m3664 -80 c113 -280 279 -597
449 -858 45 -69 85 -130 89 -136 8 -13 -106 -179 -276 -404 -157 -208 -310
-398 -325 -404 -21 -9 -248 189 -464 406 -116 116 -208 216 -208 226 0 10 25
58 56 108 207 327 458 827 573 1142 13 34 29 62 36 62 7 0 38 -64 70 -142z
m-1833 -179 c104 -258 300 -613 476 -860 51 -72 96 -137 98 -144 5 -13 -82
-136 -210 -295 -149 -186 -397 -460 -416 -460 -18 0 -272 281 -416 460 -94
117 -214 278 -214 287 0 5 45 72 99 148 202 283 361 576 505 928 9 22 21 37
28 35 7 -3 29 -47 50 -99z m-2677 -1251 c82 -117 229 -308 363 -476 100 -125
112 -145 100 -159 -50 -62 -809 -512 -842 -500 -7 3 -34 72 -61 154 -26 81
-76 225 -111 320 -35 95 -64 179 -64 187 0 9 21 35 47 58 148 135 274 258 379
371 65 70 121 127 124 127 4 0 33 -37 65 -82z m5439 -45 c105 -113 231 -236
379 -371 26 -23 47 -49 47 -58 0 -8 -29 -92 -64 -187 -35 -95 -85 -239 -111
-320 -27 -82 -54 -151 -61 -154 -33 -12 -792 438 -842 500 -12 14 3 37 121
184 132 166 271 348 356 471 24 34 47 62 50 62 4 0 60 -57 125 -127z m-3673
-91 c84 -118 334 -414 472 -559 48 -51 87 -96 87 -100 0 -32 -601 -523 -639
-523 -26 0 -601 599 -601 626 0 7 62 66 138 130 75 65 217 198 315 296 98 97
183 175 190 172 7 -2 24 -21 38 -42z m1945 -130 c98 -98 241 -231 317 -295 75
-65 137 -124 137 -131 0 -28 -574 -626 -601 -626 -39 0 -639 491 -639 523 0 5
35 46 78 91 133 138 309 344 437 511 58 75 83 104 91 105 1 0 82 -80 180 -178z
m-2875 -764 c46 -51 177 -190 291 -309 191 -199 206 -217 190 -231 -27 -23
-252 -157 -412 -246 -254 -140 -672 -342 -708 -342 -10 0 -85 69 -167 153
-266 270 -254 255 -275 338 -34 129 -45 113 158 221 220 117 458 260 667 400
88 59 163 107 166 107 3 1 43 -41 90 -91z m3803 4 c249 -168 472 -302 739
-442 157 -82 150 -70 116 -204 l-21 -83 -207 -207 -208 -206 -59 26 c-151 68
-514 248 -649 323 -166 92 -390 226 -417 249 -16 14 -1 32 190 231 114 119
245 258 291 309 47 50 87 92 89 92 2 0 63 -40 136 -88z m-1937 -123 c105 -95
306 -262 436 -360 64 -50 117 -93 117 -98 0 -13 -492 -431 -589 -500 -16 -12
-35 -21 -43 -21 -24 0 -581 461 -616 510 -12 16 -2 27 105 108 130 99 331 265
436 361 37 33 72 61 77 61 5 0 40 -28 77 -61z m-935 -800 c97 -87 204 -178
456 -387 28 -24 52 -49 52 -56 0 -24 -516 -377 -854 -585 -106 -65 -156 -91
-170 -87 -46 13 -716 567 -716 593 0 7 98 62 218 122 313 156 607 322 817 460
33 22 65 40 72 40 6 1 62 -44 125 -100z m1959 30 c246 -155 493 -293 791 -441
108 -53 199 -102 202 -107 13 -21 -687 -601 -725 -601 -51 0 -1019 642 -1019
676 0 7 24 32 53 56 251 209 358 300 455 387 63 56 118 101 122 101 5 0 60
-32 121 -71z m-3448 -872 c164 -144 410 -351 525 -441 34 -27 62 -54 62 -61 0
-22 -798 -435 -840 -435 -19 0 -20 7 -20 99 0 132 -16 413 -37 646 -10 105
-17 210 -18 234 l0 44 65 28 c36 15 73 28 83 28 10 1 91 -63 180 -142z m4953
115 l69 -29 0 -44 c-1 -24 -8 -129 -18 -234 -22 -241 -37 -499 -37 -637 0
-101 -1 -108 -20 -108 -34 0 -763 372 -821 419 l-22 18 78 64 c184 149 439
364 555 468 68 61 129 111 136 111 6 0 42 -13 80 -28z m-2431 -98 c171 -124
606 -417 743 -499 45 -28 82 -57 82 -65 -1 -8 -26 -33 -58 -54 -367 -253 -908
-596 -939 -596 -50 0 -1009 627 -1000 654 2 6 32 29 66 51 191 121 617 408
756 509 88 64 167 116 175 116 8 0 87 -52 175 -116z m-1393 -910 c168 -120
514 -351 696 -465 61 -38 101 -70 100 -78 -7 -37 -1178 -621 -1245 -621 -10 0
-94 46 -188 102 -184 111 -759 490 -770 507 -3 6 -4 19 0 29 3 10 161 94 413
219 224 111 495 251 602 311 107 61 203 111 212 111 9 1 90 -51 180 -115z
m2825 5 c109 -61 381 -201 605 -312 252 -125 410 -209 413 -219 4 -10 3 -23 0
-29 -11 -16 -570 -385 -765 -503 -96 -58 -182 -106 -190 -106 -58 0 -1250 593
-1250 621 0 6 41 36 91 67 157 98 629 414 754 505 66 47 125 87 132 87 6 0
100 -50 210 -111z m-1390 -905 c114 -63 384 -203 598 -310 215 -107 391 -201
393 -208 2 -8 -72 -50 -190 -108 -337 -167 -637 -289 -890 -363 l-128 -37
-127 38 c-194 56 -393 131 -618 232 -187 83 -465 225 -465 236 0 6 166 93 368
193 202 100 473 240 602 312 129 72 238 130 242 131 4 0 100 -52 215 -116z
m-2680 -254 c89 -58 196 -127 238 -153 42 -27 74 -54 72 -60 -7 -23 -552 -226
-567 -211 -4 5 0 66 10 139 10 72 23 182 30 245 12 127 23 165 43 153 6 -4 85
-55 174 -113z m5147 -72 c9 -90 22 -202 28 -251 8 -59 8 -91 1 -98 -6 -6 -74
14 -209 65 -295 112 -348 133 -352 144 -2 6 31 32 73 59 42 26 154 98 248 160
140 92 174 110 183 98 5 -7 18 -87 28 -177z"></path>
</g>
</svg>
